<?xml version="1.0" standalone="no"?>
<!DOCTYPE svg PUBLIC "-//W3C//DTD SVG 20010904//EN"
 "http://www.w3.org/TR/2001/REC-SVG-20010904/DTD/svg10.dtd">
<svg version="1.0" xmlns="http://www.w3.org/2000/svg"
 width="50.000000pt" height="50.000000pt" viewBox="0 0 50.000000 50.000000"
 preserveAspectRatio="xMidYMid meet">

<g transform="translate(0.000000,50.000000) scale(0.100000,-0.100000)"
fill="#E44848" stroke="none">
<path d="M42 430 c-33 -14 -42 -49 -42 -175 0 -120 9 -145 50 -145 11 0 30
-11 44 -25 31 -31 41 -31 71 0 21 20 36 25 98 27 67 2 74 1 99 -25 34 -34 41
-34 78 1 17 15 37 33 46 41 27 23 14 109 -24 161 -23 32 -29 47 -21 56 16 19
-18 71 -54 84 -37 12 -313 12 -345 0z m377 -39 c12 -16 21 -32 21 -35 0 -3
-27 -6 -59 -6 -77 0 -91 -14 -91 -86 l0 -54 -135 0 -135 0 0 93 c0 59 4 97 12
105 8 8 65 12 189 12 l178 0 20 -29z m-59 -104 c0 -55 13 -67 72 -67 l48 0 0
-45 c0 -51 -9 -55 -44 -20 -31 31 -41 31 -72 0 -46 -46 -54 -36 -54 75 l0 100
25 0 c23 0 25 -4 25 -43z m83 11 c43 -58 43 -58 -12 -58 l-51 0 0 45 c0 38 3
45 19 45 11 0 31 -15 44 -32z m-153 -138 c0 -29 -1 -30 -50 -30 -39 0 -54 5
-74 25 -14 14 -30 25 -36 25 -6 0 -22 -11 -36 -25 -14 -14 -36 -25 -49 -25
-21 0 -25 5 -25 30 l0 30 135 0 135 0 0 -30z m-125 -40 c0 -33 -2 -35 -35 -35
-29 0 -36 4 -38 23 -6 40 5 54 40 50 30 -3 33 -6 33 -38z m270 0 c0 -33 -2
-35 -35 -35 -29 0 -36 4 -38 23 -6 40 5 54 40 50 30 -3 33 -6 33 -38z"/>
<path d="M62 378 c-16 -16 -16 -100 0 -116 16 -16 160 -16 176 0 16 16 16 100
0 116 -7 7 -42 12 -88 12 -46 0 -81 -5 -88 -12z m168 -58 l0 -50 -80 0 -80 0
0 50 0 50 80 0 80 0 0 -50z"/>
<path d="M300 380 c0 -5 18 -10 40 -10 22 0 40 5 40 10 0 6 -18 10 -40 10 -22
0 -40 -4 -40 -10z"/>
</g>
</svg>
